# https://github.com/mikedh/trimesh
mtllib material.mtl
usemtl material_0
v 0.13400000 -1.35000000 -1.35000000
v 0.13400000 1.35000000 -1.35000000
v 0.13400000 1.35000000 1.35000000
v 0.13400000 -1.35000000 1.35000000
v 0.13400000 -0.75000000 -0.75000000
v 0.13400000 0.75000000 -0.75000000
v 0.13400000 0.75000000 0.75000000
v 0.13400000 -0.75000000 0.75000000
v -0.13400000 -1.35000000 -1.35000000
v -0.13400000 1.35000000 -1.35000000
v -0.13400000 1.35000000 1.35000000
v -0.13400000 -1.35000000 1.35000000
v -0.13400000 -0.75000000 -0.75000000
v -0.13400000 0.75000000 -0.75000000
v -0.13400000 0.75000000 0.75000000
v -0.13400000 -0.75000000 0.75000000
vn 1.00000000 0.00000000 0.00000000
vn 1.00000000 0.00000000 0.00000000
vn 1.00000000 0.00000000 0.00000000
vn 1.00000000 0.00000000 0.00000000
vn 1.00000000 0.00000000 0.00000000
vn 1.00000000 0.00000000 0.00000000
vn 1.00000000 0.00000000 0.00000000
vn 1.00000000 0.00000000 0.00000000
vn -1.00000000 0.00000000 0.00000000
vn -1.00000000 0.00000000 0.00000000
vn -1.00000000 0.00000000 0.00000000
vn -1.00000000 0.00000000 0.00000000
vn -1.00000000 0.00000000 0.00000000
vn -1.00000000 0.00000000 0.00000000
vn -1.00000000 0.00000000 0.00000000
vn -1.00000000 0.00000000 0.00000000
vt 0.00000000 1.00000000
vt 1.00000000 1.00000000
vt 1.00000000 0.00000000
vt 0.00000000 0.00000000
vt 0.22222222 0.77777778
vt 0.77777778 0.77777778
vt 0.77777778 0.22222222
vt 0.22222222 0.22222222
vt 0.00000000 1.00000000
vt 1.00000000 1.00000000
vt 1.00000000 0.00000000
vt 0.00000000 0.00000000
vt 0.22222222 0.77777778
vt 0.77777778 0.77777778
vt 0.77777778 0.22222222
vt 0.22222222 0.22222222
f 1/1/1 2/2/2 6/6/6
f 1/1/1 6/6/6 5/5/5
f 2/2/2 3/3/3 7/7/7
f 2/2/2 7/7/7 6/6/6
f 3/3/3 4/4/4 8/8/8
f 3/3/3 8/8/8 7/7/7
f 4/4/4 1/1/1 5/5/5
f 4/4/4 5/5/5 8/8/8
f 10/10/10 9/9/9 13/13/13
f 10/10/10 13/13/13 14/14/14
f 11/11/11 10/10/10 14/14/14
f 11/11/11 14/14/14 15/15/15
f 12/12/12 11/11/11 15/15/15
f 12/12/12 15/15/15 16/16/16
f 9/9/9 12/12/12 16/16/16
f 9/9/9 16/16/16 13/13/13

