<?xml version="1.0" encoding="utf-8" standalone="no"?>
<!DOCTYPE svg PUBLIC "-//W3C//DTD SVG 1.1//EN"
  "http://www.w3.org/Graphics/SVG/1.1/DTD/svg11.dtd">
<svg xmlns:xlink="http://www.w3.org/1999/xlink" width="462.755748pt" height="223.647922pt" viewBox="0 0 462.755748 223.647922" xmlns="http://www.w3.org/2000/svg" version="1.1">
 <metadata>
  <rdf:RDF xmlns:dc="http://purl.org/dc/elements/1.1/" xmlns:cc="http://creativecommons.org/ns#" xmlns:rdf="http://www.w3.org/1999/02/22-rdf-syntax-ns#">
   <cc:Work>
    <dc:type rdf:resource="http://purl.org/dc/dcmitype/StillImage"/>
    <dc:date>2026-09-23T21:13:26.150364</dc:date>
    <dc:format>image/svg+xml</dc:format>
    <dc:creator>
     <cc:Agent>
      <dc:title>Matplotlib v3.9.4, https://matplotlib.org/</dc:title>
     </cc:Agent>
    </dc:creator>
   </cc:Work>
  </rdf:RDF>
 </metadata>
 <defs>
  <style type="text/css">*{stroke-linejoin: round; stroke-linecap: butt}</style>
 </defs>
 <g id="figure_1">
  <g id="patch_1">
   <path d="M 0 223.647922 
L 462.755748 223.647922 
L 462.755748 0 
L 0 0 
z
" style="fill: #ffffff"/>
  </g>
  <g id="axes_1">
   <g id="patch_2">
    <path d="M 44.089063 188.027297 
L 212.895785 188.027297 
L 212.895785 10.619297 
L 44.089063 10.619297 
z
" style="fill: #ffffff"/>
   </g>
   <g id="matplotlib.axis_1">
    <g id="xtick_1">
     <g id="line2d_1">
      <path d="M 44.089063 188.027297 
L 44.089063 10.619297 
" clip-path="url(#pb4204b5f09)" style="fill: none; stroke: #e6e5e1; stroke-width: 0.6; stroke-linecap: square"/>
     </g>
     <g id="line2d_2">
      <defs>
       <path id="m8fd1b9c107" d="M 0 0 
L 0 3.5 
" style="stroke: #52514e; stroke-width: 0.8"/>
      </defs>
      <g>
       <use xlink:href="#m8fd1b9c107" x="44.089063" y="188.027297" style="fill: #52514e; stroke: #52514e; stroke-width: 0.8"/>
      </g>
     </g>
     <g id="text_1">
      <text style="fill: #52514e; font: 9px 'Helvetica Neue', Helvetica, Arial, sans-serif; text-anchor: middle" x="44.089063" y="201.865891" transform="rotate(-0 44.089063 201.865891)">0</text>
     </g>
    </g>
    <g id="xtick_2">
     <g id="line2d_3">
      <path d="M 89.960455 188.027297 
L 89.960455 10.619297 
" clip-path="url(#pb4204b5f09)" style="fill: none; stroke: #e6e5e1; stroke-width: 0.6; stroke-linecap: square"/>
     </g>
     <g id="line2d_4">
      <g>
       <use xlink:href="#m8fd1b9c107" x="89.960455" y="188.027297" style="fill: #52514e; stroke: #52514e; stroke-width: 0.8"/>
      </g>
     </g>
     <g id="text_2">
      <text style="fill: #52514e; font: 9px 'Helvetica Neue', Helvetica, Arial, sans-serif; text-anchor: middle" x="89.960455" y="201.865891" transform="rotate(-0 89.960455 201.865891)">50</text>
     </g>
    </g>
    <g id="xtick_3">
     <g id="line2d_5">
      <path d="M 135.831847 188.027297 
L 135.831847 10.619297 
" clip-path="url(#pb4204b5f09)" style="fill: none; stroke: #e6e5e1; stroke-width: 0.6; stroke-linecap: square"/>
     </g>
     <g id="line2d_6">
      <g>
       <use xlink:href="#m8fd1b9c107" x="135.831847" y="188.027297" style="fill: #52514e; stroke: #52514e; stroke-width: 0.8"/>
      </g>
     </g>
     <g id="text_3">
      <text style="fill: #52514e; font: 9px 'Helvetica Neue', Helvetica, Arial, sans-serif; text-anchor: middle" x="135.831847" y="201.865891" transform="rotate(-0 135.831847 201.865891)">100</text>
     </g>
    </g>
    <g id="xtick_4">
     <g id="line2d_7">
      <path d="M 181.703239 188.027297 
L 181.703239 10.619297 
" clip-path="url(#pb4204b5f09)" style="fill: none; stroke: #e6e5e1; stroke-width: 0.6; stroke-linecap: square"/>
     </g>
     <g id="line2d_8">
      <g>
       <use xlink:href="#m8fd1b9c107" x="181.703239" y="188.027297" style="fill: #52514e; stroke: #52514e; stroke-width: 0.8"/>
      </g>
     </g>
     <g id="text_4">
      <text style="fill: #52514e; font: 9px 'Helvetica Neue', Helvetica, Arial, sans-serif; text-anchor: middle" x="181.703239" y="201.865891" transform="rotate(-0 181.703239 201.865891)">150</text>
     </g>
    </g>
    <g id="text_5">
     <text style="fill: #0b0b0b; font: 9px 'Helvetica Neue', Helvetica, Arial, sans-serif; text-anchor: middle" x="128.492424" y="214.576203" transform="rotate(-0 128.492424 214.576203)">body rate the policy asked for (deg/s)</text>
    </g>
   </g>
   <g id="matplotlib.axis_2">
    <g id="ytick_1">
     <g id="line2d_9">
      <path d="M 44.089063 188.027297 
L 212.895785 188.027297 
" clip-path="url(#pb4204b5f09)" style="fill: none; stroke: #e6e5e1; stroke-width: 0.6; stroke-linecap: square"/>
     </g>
     <g id="line2d_10">
      <defs>
       <path id="m555162c850" d="M 0 0 
L -3.5 0 
" style="stroke: #52514e; stroke-width: 0.8"/>
      </defs>
      <g>
       <use xlink:href="#m555162c850" x="44.089063" y="188.027297" style="fill: #52514e; stroke: #52514e; stroke-width: 0.8"/>
      </g>
     </g>
     <g id="text_6">
      <text style="fill: #52514e; font: 9px 'Helvetica Neue', Helvetica, Arial, sans-serif; text-anchor: end" x="37.089063" y="191.446594" transform="rotate(-0 37.089063 191.446594)">0</text>
     </g>
    </g>
    <g id="ytick_2">
     <g id="line2d_11">
      <path d="M 44.089063 168.315297 
L 212.895785 168.315297 
" clip-path="url(#pb4204b5f09)" style="fill: none; stroke: #e6e5e1; stroke-width: 0.6; stroke-linecap: square"/>
     </g>
     <g id="line2d_12">
      <g>
       <use xlink:href="#m555162c850" x="44.089063" y="168.315297" style="fill: #52514e; stroke: #52514e; stroke-width: 0.8"/>
      </g>
     </g>
     <g id="text_7">
      <text style="fill: #52514e; font: 9px 'Helvetica Neue', Helvetica, Arial, sans-serif; text-anchor: end" x="37.089063" y="171.734594" transform="rotate(-0 37.089063 171.734594)">50</text>
     </g>
    </g>
    <g id="ytick_3">
     <g id="line2d_13">
      <path d="M 44.089063 148.603297 
L 212.895785 148.603297 
" clip-path="url(#pb4204b5f09)" style="fill: none; stroke: #e6e5e1; stroke-width: 0.6; stroke-linecap: square"/>
     </g>
     <g id="line2d_14">
      <g>
       <use xlink:href="#m555162c850" x="44.089063" y="148.603297" style="fill: #52514e; stroke: #52514e; stroke-width: 0.8"/>
      </g>
     </g>
     <g id="text_8">
      <text style="fill: #52514e; font: 9px 'Helvetica Neue', Helvetica, Arial, sans-serif; text-anchor: end" x="37.089063" y="152.022594" transform="rotate(-0 37.089063 152.022594)">100</text>
     </g>
    </g>
    <g id="ytick_4">
     <g id="line2d_15">
      <path d="M 44.089063 128.891297 
L 212.895785 128.891297 
" clip-path="url(#pb4204b5f09)" style="fill: none; stroke: #e6e5e1; stroke-width: 0.6; stroke-linecap: square"/>
     </g>
     <g id="line2d_16">
      <g>
       <use xlink:href="#m555162c850" x="44.089063" y="128.891297" style="fill: #52514e; stroke: #52514e; stroke-width: 0.8"/>
      </g>
     </g>
     <g id="text_9">
      <text style="fill: #52514e; font: 9px 'Helvetica Neue', Helvetica, Arial, sans-serif; text-anchor: end" x="37.089063" y="132.310594" transform="rotate(-0 37.089063 132.310594)">150</text>
     </g>
    </g>
    <g id="ytick_5">
     <g id="line2d_17">
      <path d="M 44.089063 109.179297 
L 212.895785 109.179297 
" clip-path="url(#pb4204b5f09)" style="fill: none; stroke: #e6e5e1; stroke-width: 0.6; stroke-linecap: square"/>
     </g>
     <g id="line2d_18">
      <g>
       <use xlink:href="#m555162c850" x="44.089063" y="109.179297" style="fill: #52514e; stroke: #52514e; stroke-width: 0.8"/>
      </g>
     </g>
     <g id="text_10">
      <text style="fill: #52514e; font: 9px 'Helvetica Neue', Helvetica, Arial, sans-serif; text-anchor: end" x="37.089063" y="112.598594" transform="rotate(-0 37.089063 112.598594)">200</text>
     </g>
    </g>
    <g id="ytick_6">
     <g id="line2d_19">
      <path d="M 44.089063 89.467297 
L 212.895785 89.467297 
" clip-path="url(#pb4204b5f09)" style="fill: none; stroke: #e6e5e1; stroke-width: 0.6; stroke-linecap: square"/>
     </g>
     <g id="line2d_20">
      <g>
       <use xlink:href="#m555162c850" x="44.089063" y="89.467297" style="fill: #52514e; stroke: #52514e; stroke-width: 0.8"/>
      </g>
     </g>
     <g id="text_11">
      <text style="fill: #52514e; font: 9px 'Helvetica Neue', Helvetica, Arial, sans-serif; text-anchor: end" x="37.089063" y="92.886594" transform="rotate(-0 37.089063 92.886594)">250</text>
     </g>
    </g>
    <g id="ytick_7">
     <g id="line2d_21">
      <path d="M 44.089063 69.755297 
L 212.895785 69.755297 
" clip-path="url(#pb4204b5f09)" style="fill: none; stroke: #e6e5e1; stroke-width: 0.6; stroke-linecap: square"/>
     </g>
     <g id="line2d_22">
      <g>
       <use xlink:href="#m555162c850" x="44.089063" y="69.755297" style="fill: #52514e; stroke: #52514e; stroke-width: 0.8"/>
      </g>
     </g>
     <g id="text_12">
      <text style="fill: #52514e; font: 9px 'Helvetica Neue', Helvetica, Arial, sans-serif; text-anchor: end" x="37.089063" y="73.174594" transform="rotate(-0 37.089063 73.174594)">300</text>
     </g>
    </g>
    <g id="ytick_8">
     <g id="line2d_23">
      <path d="M 44.089063 50.043297 
L 212.895785 50.043297 
" clip-path="url(#pb4204b5f09)" style="fill: none; stroke: #e6e5e1; stroke-width: 0.6; stroke-linecap: square"/>
     </g>
     <g id="line2d_24">
      <g>
       <use xlink:href="#m555162c850" x="44.089063" y="50.043297" style="fill: #52514e; stroke: #52514e; stroke-width: 0.8"/>
      </g>
     </g>
     <g id="text_13">
      <text style="fill: #52514e; font: 9px 'Helvetica Neue', Helvetica, Arial, sans-serif; text-anchor: end" x="37.089063" y="53.462594" transform="rotate(-0 37.089063 53.462594)">350</text>
     </g>
    </g>
    <g id="ytick_9">
     <g id="line2d_25">
      <path d="M 44.089063 30.331297 
L 212.895785 30.331297 
" clip-path="url(#pb4204b5f09)" style="fill: none; stroke: #e6e5e1; stroke-width: 0.6; stroke-linecap: square"/>
     </g>
     <g id="line2d_26">
      <g>
       <use xlink:href="#m555162c850" x="44.089063" y="30.331297" style="fill: #52514e; stroke: #52514e; stroke-width: 0.8"/>
      </g>
     </g>
     <g id="text_14">
      <text style="fill: #52514e; font: 9px 'Helvetica Neue', Helvetica, Arial, sans-serif; text-anchor: end" x="37.089063" y="33.750594" transform="rotate(-0 37.089063 33.750594)">400</text>
     </g>
    </g>
    <g id="ytick_10">
     <g id="line2d_27">
      <path d="M 44.089063 10.619297 
L 212.895785 10.619297 
" clip-path="url(#pb4204b5f09)" style="fill: none; stroke: #e6e5e1; stroke-width: 0.6; stroke-linecap: square"/>
     </g>
     <g id="line2d_28">
      <g>
       <use xlink:href="#m555162c850" x="44.089063" y="10.619297" style="fill: #52514e; stroke: #52514e; stroke-width: 0.8"/>
      </g>
     </g>
     <g id="text_15">
      <text style="fill: #52514e; font: 9px 'Helvetica Neue', Helvetica, Arial, sans-serif; text-anchor: end" x="37.089063" y="14.038594" transform="rotate(-0 37.089063 14.038594)">450</text>
     </g>
    </g>
    <g id="text_16">
     <text style="fill: #0b0b0b; font: 9px 'Helvetica Neue', Helvetica, Arial, sans-serif; text-anchor: middle" x="14.038594" y="99.323297" transform="rotate(-90 14.038594 99.323297)">rate setpoint the PID loop receives (deg/s)</text>
    </g>
   </g>
   <g id="PolyCollection_1">
    <defs>
     <path id="m77a16d834f" d="M 44.510634 -35.801784 
L 44.510634 -35.729517 
L 44.932206 -35.838821 
L 45.353778 -35.948537 
L 45.77535 -36.058669 
L 46.196922 -36.16922 
L 46.618494 -36.28019 
L 47.040066 -36.391583 
L 47.461638 -36.503402 
L 47.883209 -36.615648 
L 48.304781 -36.728324 
L 48.726353 -36.841432 
L 49.147925 -36.954976 
L 49.569497 -37.068957 
L 49.991069 -37.183378 
L 50.412641 -37.298242 
L 50.834213 -37.413551 
L 51.255784 -37.529308 
L 51.677356 -37.645515 
L 52.098928 -37.762176 
L 52.5205 -37.879292 
L 52.942072 -37.996866 
L 53.363644 -38.114902 
L 53.785216 -38.233401 
L 54.206788 -38.352367 
L 54.628359 -38.471802 
L 55.049931 -38.591709 
L 55.471503 -38.712091 
L 55.893075 -38.832951 
L 56.314647 -38.954291 
L 56.736219 -39.076115 
L 57.157791 -39.198425 
L 57.579363 -39.321224 
L 58.000934 -39.444516 
L 58.422506 -39.568303 
L 58.844078 -39.692587 
L 59.26565 -39.817373 
L 59.687222 -39.942664 
L 60.108794 -40.068461 
L 60.530366 -40.194769 
L 60.951938 -40.32159 
L 61.373509 -40.448928 
L 61.795081 -40.576785 
L 62.216653 -40.705165 
L 62.638225 -40.834072 
L 63.059797 -40.963508 
L 63.481369 -41.093477 
L 63.902941 -41.223981 
L 64.324513 -41.355025 
L 64.746084 -41.486611 
L 65.167656 -41.618744 
L 65.589228 -41.751426 
L 66.0108 -41.884661 
L 66.432372 -42.018452 
L 66.853944 -42.152802 
L 67.275516 -42.287717 
L 67.697088 -42.423198 
L 68.118659 -42.559249 
L 68.540231 -42.695875 
L 68.961803 -42.833078 
L 69.383375 -42.970862 
L 69.804947 -43.109232 
L 70.226519 -43.24819 
L 70.648091 -43.387741 
L 71.069663 -43.527889 
L 71.491234 -43.668636 
L 71.912806 -43.809988 
L 72.334378 -43.951948 
L 72.75595 -44.094519 
L 73.177522 -44.237707 
L 73.599094 -44.381514 
L 74.020666 -44.525945 
L 74.442238 -44.671004 
L 74.863809 -44.816695 
L 75.285381 -44.963023 
L 75.706953 -45.10999 
L 76.128525 -45.257603 
L 76.550097 -45.405864 
L 76.971669 -45.554778 
L 77.393241 -45.70435 
L 77.814813 -45.854584 
L 78.236384 -46.005484 
L 78.657956 -46.157054 
L 79.079528 -46.3093 
L 79.5011 -46.462225 
L 79.922672 -46.615835 
L 80.344244 -46.770133 
L 80.765816 -46.925125 
L 81.187388 -47.080815 
L 81.608959 -47.237208 
L 82.030531 -47.394308 
L 82.452103 -47.552121 
L 82.873675 -47.710652 
L 83.295247 -47.869904 
L 83.716819 -48.029884 
L 84.138391 -48.190596 
L 84.559963 -48.352045 
L 84.981534 -48.514237 
L 85.403106 -48.677176 
L 85.824678 -48.840867 
L 86.24625 -49.005316 
L 86.667822 -49.170529 
L 87.089394 -49.33651 
L 87.510966 -49.503264 
L 87.932538 -49.670798 
L 88.354109 -49.839117 
L 88.775681 -50.008226 
L 89.197253 -50.17813 
L 89.618825 -50.348836 
L 90.040397 -50.52035 
L 90.461969 -50.692676 
L 90.883541 -50.86582 
L 91.305113 -51.039789 
L 91.726684 -51.214589 
L 92.148256 -51.390225 
L 92.569828 -51.566703 
L 92.9914 -51.74403 
L 93.412972 -51.922212 
L 93.834544 -52.101254 
L 94.256116 -52.281163 
L 94.677688 -52.461945 
L 95.099259 -52.643608 
L 95.520831 -52.826156 
L 95.942403 -53.009597 
L 96.363975 -53.193937 
L 96.785547 -53.379184 
L 97.207119 -53.565342 
L 97.628691 -53.75242 
L 98.050263 -53.940424 
L 98.471834 -54.129361 
L 98.893406 -54.319239 
L 99.314978 -54.510063 
L 99.73655 -54.701841 
L 100.158122 -54.894581 
L 100.579694 -55.088289 
L 101.001266 -55.282973 
L 101.422838 -55.47864 
L 101.84441 -55.675298 
L 102.265981 -55.872954 
L 102.687553 -56.071616 
L 103.109125 -56.271292 
L 103.530697 -56.471989 
L 103.952269 -56.673715 
L 104.373841 -56.876478 
L 104.795413 -57.080287 
L 105.216985 -57.285149 
L 105.638556 -57.491072 
L 106.060128 -57.698065 
L 106.4817 -57.906136 
L 106.903272 -58.115294 
L 107.324844 -58.325546 
L 107.746416 -58.536903 
L 108.167988 -58.749372 
L 108.58956 -58.962962 
L 109.011131 -59.177682 
L 109.432703 -59.393541 
L 109.854275 -59.610548 
L 110.275847 -59.828713 
L 110.697419 -60.048045 
L 111.118991 -60.268552 
L 111.540563 -60.490245 
L 111.962135 -60.713133 
L 112.383706 -60.937226 
L 112.805278 -61.162534 
L 113.22685 -61.389066 
L 113.648422 -61.616832 
L 114.069994 -61.845843 
L 114.491566 -62.076109 
L 114.913138 -62.30764 
L 115.33471 -62.540447 
L 115.756281 -62.77454 
L 116.177853 -63.00993 
L 116.599425 -63.246628 
L 117.020997 -63.484644 
L 117.442569 -63.72399 
L 117.864141 -63.964677 
L 118.285713 -64.206716 
L 118.707285 -64.450119 
L 119.128856 -64.694897 
L 119.550428 -64.941062 
L 119.972 -65.188625 
L 120.393572 -65.437599 
L 120.815144 -65.687996 
L 121.236716 -65.939827 
L 121.658288 -66.193106 
L 122.07986 -66.447845 
L 122.501431 -66.704056 
L 122.923003 -66.961753 
L 123.344575 -67.220947 
L 123.766147 -67.481654 
L 124.187719 -67.743884 
L 124.609291 -68.007653 
L 125.030863 -68.272973 
L 125.452435 -68.539859 
L 125.874006 -68.808324 
L 126.295578 -69.078382 
L 126.71715 -69.350047 
L 127.138722 -69.623335 
L 127.560294 -69.898259 
L 127.981866 -70.174834 
L 128.403438 -70.453075 
L 128.82501 -70.732997 
L 129.246581 -71.014616 
L 129.668153 -71.297947 
L 130.089725 -71.583005 
L 130.511297 -71.869807 
L 130.932869 -72.158369 
L 131.354441 -72.448706 
L 131.776013 -72.740836 
L 132.197585 -73.034774 
L 132.619156 -73.330538 
L 133.040728 -73.628145 
L 133.4623 -73.927612 
L 133.4623 -74.026376 
L 133.4623 -74.026376 
L 133.040728 -73.845217 
L 132.619156 -73.664058 
L 132.197585 -73.482898 
L 131.776013 -73.301739 
L 131.354441 -73.12058 
L 130.932869 -72.939421 
L 130.511297 -72.758262 
L 130.089725 -72.577102 
L 129.668153 -72.395943 
L 129.246581 -72.214784 
L 128.82501 -72.033625 
L 128.403438 -71.852466 
L 127.981866 -71.671306 
L 127.560294 -71.490147 
L 127.138722 -71.308988 
L 126.71715 -71.127829 
L 126.295578 -70.94667 
L 125.874006 -70.76551 
L 125.452435 -70.584351 
L 125.030863 -70.403192 
L 124.609291 -70.222033 
L 124.187719 -70.040874 
L 123.766147 -69.859714 
L 123.344575 -69.678555 
L 122.923003 -69.497396 
L 122.501431 -69.316237 
L 122.07986 -69.135078 
L 121.658288 -68.953918 
L 121.236716 -68.772759 
L 120.815144 -68.5916 
L 120.393572 -68.410441 
L 119.972 -68.229282 
L 119.550428 -68.048122 
L 119.128856 -67.866963 
L 118.707285 -67.685804 
L 118.285713 -67.504645 
L 117.864141 -67.323486 
L 117.442569 -67.142326 
L 117.020997 -66.961167 
L 116.599425 -66.780008 
L 116.177853 -66.598849 
L 115.756281 -66.417689 
L 115.33471 -66.23653 
L 114.913138 -66.055371 
L 114.491566 -65.874212 
L 114.069994 -65.693053 
L 113.648422 -65.511893 
L 113.22685 -65.330734 
L 112.805278 -65.149575 
L 112.383706 -64.968416 
L 111.962135 -64.787257 
L 111.540563 -64.606097 
L 111.118991 -64.424938 
L 110.697419 -64.243779 
L 110.275847 -64.06262 
L 109.854275 -63.881461 
L 109.432703 -63.700301 
L 109.011131 -63.519142 
L 108.58956 -63.337983 
L 108.167988 -63.156824 
L 107.746416 -62.975665 
L 107.324844 -62.794505 
L 106.903272 -62.613346 
L 106.4817 -62.432187 
L 106.060128 -62.251028 
L 105.638556 -62.069869 
L 105.216985 -61.888709 
L 104.795413 -61.70755 
L 104.373841 -61.526391 
L 103.952269 -61.345232 
L 103.530697 -61.164073 
L 103.109125 -60.982913 
L 102.687553 -60.801754 
L 102.265981 -60.620595 
L 101.84441 -60.439436 
L 101.422838 -60.258277 
L 101.001266 -60.077117 
L 100.579694 -59.895958 
L 100.158122 -59.714799 
L 99.73655 -59.53364 
L 99.314978 -59.352481 
L 98.893406 -59.171321 
L 98.471834 -58.990162 
L 98.050263 -58.809003 
L 97.628691 -58.627844 
L 97.207119 -58.446685 
L 96.785547 -58.265525 
L 96.363975 -58.084366 
L 95.942403 -57.903207 
L 95.520831 -57.722048 
L 95.099259 -57.540889 
L 94.677688 -57.359729 
L 94.256116 -57.17857 
L 93.834544 -56.997411 
L 93.412972 -56.816252 
L 92.9914 -56.635093 
L 92.569828 -56.453933 
L 92.148256 -56.272774 
L 91.726684 -56.091615 
L 91.305113 -55.910456 
L 90.883541 -55.729297 
L 90.461969 -55.548137 
L 90.040397 -55.366978 
L 89.618825 -55.185819 
L 89.197253 -55.00466 
L 88.775681 -54.823501 
L 88.354109 -54.642341 
L 87.932538 -54.461182 
L 87.510966 -54.280023 
L 87.089394 -54.098864 
L 86.667822 -53.917704 
L 86.24625 -53.736545 
L 85.824678 -53.555386 
L 85.403106 -53.374227 
L 84.981534 -53.193068 
L 84.559963 -53.011908 
L 84.138391 -52.830749 
L 83.716819 -52.64959 
L 83.295247 -52.468431 
L 82.873675 -52.287272 
L 82.452103 -52.106112 
L 82.030531 -51.924953 
L 81.608959 -51.743794 
L 81.187388 -51.562635 
L 80.765816 -51.381476 
L 80.344244 -51.200316 
L 79.922672 -51.019157 
L 79.5011 -50.837998 
L 79.079528 -50.656839 
L 78.657956 -50.47568 
L 78.236384 -50.29452 
L 77.814813 -50.113361 
L 77.393241 -49.932202 
L 76.971669 -49.751043 
L 76.550097 -49.569884 
L 76.128525 -49.388724 
L 75.706953 -49.207565 
L 75.285381 -49.026406 
L 74.863809 -48.845247 
L 74.442238 -48.664088 
L 74.020666 -48.482928 
L 73.599094 -48.301769 
L 73.177522 -48.12061 
L 72.75595 -47.939451 
L 72.334378 -47.758292 
L 71.912806 -47.577132 
L 71.491234 -47.395973 
L 71.069663 -47.214814 
L 70.648091 -47.033655 
L 70.226519 -46.852496 
L 69.804947 -46.671336 
L 69.383375 -46.490177 
L 68.961803 -46.309018 
L 68.540231 -46.127859 
L 68.118659 -45.9467 
L 67.697088 -45.76554 
L 67.275516 -45.584381 
L 66.853944 -45.403222 
L 66.432372 -45.222063 
L 66.0108 -45.040904 
L 65.589228 -44.859744 
L 65.167656 -44.678585 
L 64.746084 -44.497426 
L 64.324513 -44.316267 
L 63.902941 -44.135108 
L 63.481369 -43.953948 
L 63.059797 -43.772789 
L 62.638225 -43.59163 
L 62.216653 -43.410471 
L 61.795081 -43.229312 
L 61.373509 -43.048152 
L 60.951938 -42.866993 
L 60.530366 -42.685834 
L 60.108794 -42.504675 
L 59.687222 -42.323516 
L 59.26565 -42.142356 
L 58.844078 -41.961197 
L 58.422506 -41.780038 
L 58.000934 -41.598879 
L 57.579363 -41.417719 
L 57.157791 -41.23656 
L 56.736219 -41.055401 
L 56.314647 -40.874242 
L 55.893075 -40.693083 
L 55.471503 -40.511923 
L 55.049931 -40.330764 
L 54.628359 -40.149605 
L 54.206788 -39.968446 
L 53.785216 -39.787287 
L 53.363644 -39.606127 
L 52.942072 -39.424968 
L 52.5205 -39.243809 
L 52.098928 -39.06265 
L 51.677356 -38.881491 
L 51.255784 -38.700331 
L 50.834213 -38.519172 
L 50.412641 -38.338013 
L 49.991069 -38.156854 
L 49.569497 -37.975695 
L 49.147925 -37.794535 
L 48.726353 -37.613376 
L 48.304781 -37.432217 
L 47.883209 -37.251058 
L 47.461638 -37.069899 
L 47.040066 -36.888739 
L 46.618494 -36.70758 
L 46.196922 -36.526421 
L 45.77535 -36.345262 
L 45.353778 -36.164103 
L 44.932206 -35.982943 
L 44.510634 -35.801784 
z
"/>
    </defs>
    <g clip-path="url(#pb4204b5f09)">
     <use xlink:href="#m77a16d834f" x="0" y="223.647922" style="fill: #a9c8ee; fill-opacity: 0.6"/>
    </g>
   </g>
   <g id="PolyCollection_2">
    <path d="M 44.089063 188.027297 
L 44.089063 188.027297 
L 44.089063 188.027297 
L 44.089063 188.027297 
z
" clip-path="url(#pb4204b5f09)" style="fill: #f6c3ad; fill-opacity: 0.7"/>
    <path d="M 133.883872 149.440387 
L 133.883872 149.418966 
L 134.305444 149.115726 
L 134.727016 148.810573 
L 135.148588 148.503489 
L 135.57016 148.194455 
L 135.991731 147.883453 
L 136.413303 147.570464 
L 136.834875 147.255468 
L 137.256447 146.938446 
L 137.678019 146.619379 
L 138.099591 146.298247 
L 138.521163 145.97503 
L 138.942735 145.649707 
L 139.364306 145.322258 
L 139.785878 144.992662 
L 140.20745 144.660897 
L 140.629022 144.326942 
L 141.050594 143.990776 
L 141.472166 143.652376 
L 141.893738 143.31172 
L 142.31531 142.968785 
L 142.736881 142.623549 
L 143.158453 142.275988 
L 143.580025 141.926079 
L 144.001597 141.573797 
L 144.423169 141.219119 
L 144.844741 140.86202 
L 145.266313 140.502475 
L 145.687885 140.140459 
L 146.109456 139.775946 
L 146.531028 139.408911 
L 146.9526 139.039327 
L 147.374172 138.667167 
L 147.795744 138.292405 
L 148.217316 137.915012 
L 148.638888 137.534963 
L 149.06046 137.152227 
L 149.482031 136.766777 
L 149.903603 136.378583 
L 150.325175 135.987617 
L 150.746747 135.593848 
L 151.168319 135.197246 
L 151.589891 134.797781 
L 152.011463 134.395421 
L 152.433035 133.990134 
L 152.854606 133.58189 
L 153.276178 133.170654 
L 153.69775 132.756395 
L 154.119322 132.339078 
L 154.540894 131.918671 
L 154.962466 131.495137 
L 155.384038 131.068443 
L 155.80561 130.638553 
L 156.227181 130.20543 
L 156.648753 129.769039 
L 157.070325 129.329341 
L 157.491897 128.8863 
L 157.913469 128.439877 
L 158.335041 127.990033 
L 158.756613 127.536729 
L 159.178185 127.079924 
L 159.599757 126.619578 
L 160.021328 126.15565 
L 160.4429 125.688097 
L 160.864472 125.216877 
L 161.286044 124.741947 
L 161.707616 124.263262 
L 162.129188 123.780778 
L 162.55076 123.29445 
L 162.972332 122.804231 
L 163.393903 122.310075 
L 163.815475 121.811933 
L 164.237047 121.309758 
L 164.658619 120.803501 
L 165.080191 120.29311 
L 165.501763 119.778536 
L 165.923335 119.259727 
L 166.344907 118.73663 
L 166.766478 118.209192 
L 167.18805 117.677359 
L 167.609622 117.141075 
L 168.031194 116.600285 
L 168.452766 116.054931 
L 168.874338 115.504956 
L 169.29591 114.950299 
L 169.717482 114.390903 
L 170.139053 113.826704 
L 170.560625 113.257642 
L 170.982197 112.683652 
L 171.403769 112.104672 
L 171.825341 111.520635 
L 172.246913 110.931475 
L 172.668485 110.337124 
L 173.090057 109.737513 
L 173.511628 109.132572 
L 173.9332 108.52223 
L 174.354772 107.906414 
L 174.776344 107.285051 
L 175.197916 106.658064 
L 175.619488 106.025377 
L 176.04106 105.386912 
L 176.462632 104.74259 
L 176.884203 104.092329 
L 177.305775 103.436047 
L 177.727347 102.773661 
L 178.148919 102.105084 
L 178.570491 101.430229 
L 178.992063 100.749008 
L 179.413635 100.061329 
L 179.835207 99.367101 
L 180.256778 98.66623 
L 180.67835 97.95862 
L 181.099922 97.244173 
L 181.521494 96.522789 
L 181.943066 95.794368 
L 182.364638 95.058805 
L 182.78621 94.315996 
L 183.207782 93.565832 
L 183.629353 92.808203 
L 184.050925 92.042998 
L 184.472497 91.270103 
L 184.894069 90.489401 
L 185.315641 89.700772 
L 185.737213 88.904097 
L 186.158785 88.09925 
L 186.580357 87.286106 
L 187.001928 86.464536 
L 187.4235 85.634408 
L 187.845072 84.795587 
L 188.266644 83.947937 
L 188.688216 83.091317 
L 189.109788 82.225583 
L 189.53136 81.350591 
L 189.952932 80.46619 
L 190.374503 79.572228 
L 190.796075 78.668549 
L 191.217647 77.754994 
L 191.639219 76.831399 
L 192.060791 75.8976 
L 192.482363 74.953424 
L 192.903935 73.998699 
L 193.325507 73.033247 
L 193.747078 72.056886 
L 194.16865 71.06943 
L 194.590222 70.070689 
L 195.011794 69.060468 
L 195.433366 68.038568 
L 195.854938 67.004785 
L 196.27651 65.958912 
L 196.698082 64.900734 
L 197.119653 63.830033 
L 197.541225 62.746586 
L 197.962797 61.650163 
L 198.384369 60.540531 
L 198.805941 59.417448 
L 199.227513 58.280669 
L 199.649085 57.129942 
L 200.070657 55.965009 
L 200.492228 54.785604 
L 200.9138 53.591457 
L 201.335372 52.382289 
L 201.756944 51.157815 
L 202.178516 49.917743 
L 202.600088 48.661772 
L 203.02166 47.389595 
L 203.443232 46.100897 
L 203.864803 44.795353 
L 204.286375 43.47263 
L 204.707947 42.132388 
L 205.129519 40.774276 
L 205.551091 39.397935 
L 205.972663 38.002994 
L 206.394235 36.589075 
L 206.815807 35.155786 
L 207.237378 33.702729 
L 207.65895 32.229489 
L 208.080522 30.735646 
L 208.502094 29.220762 
L 208.923666 27.68439 
L 209.345238 26.12607 
L 209.76681 24.545329 
L 210.188382 22.941678 
L 210.609953 21.314616 
L 211.031525 19.663626 
L 211.453097 17.988178 
L 211.874669 16.287723 
L 212.296241 14.561697 
L 212.296241 115.744775 
L 212.296241 115.744775 
L 211.874669 115.925934 
L 211.453097 116.107093 
L 211.031525 116.288253 
L 210.609953 116.469412 
L 210.188382 116.650571 
L 209.76681 116.83173 
L 209.345238 117.012889 
L 208.923666 117.194049 
L 208.502094 117.375208 
L 208.080522 117.556367 
L 207.65895 117.737526 
L 207.237378 117.918685 
L 206.815807 118.099845 
L 206.394235 118.281004 
L 205.972663 118.462163 
L 205.551091 118.643322 
L 205.129519 118.824481 
L 204.707947 119.005641 
L 204.286375 119.1868 
L 203.864803 119.367959 
L 203.443232 119.549118 
L 203.02166 119.730277 
L 202.600088 119.911437 
L 202.178516 120.092596 
L 201.756944 120.273755 
L 201.335372 120.454914 
L 200.9138 120.636073 
L 200.492228 120.817233 
L 200.070657 120.998392 
L 199.649085 121.179551 
L 199.227513 121.36071 
L 198.805941 121.541869 
L 198.384369 121.723029 
L 197.962797 121.904188 
L 197.541225 122.085347 
L 197.119653 122.266506 
L 196.698082 122.447665 
L 196.27651 122.628825 
L 195.854938 122.809984 
L 195.433366 122.991143 
L 195.011794 123.172302 
L 194.590222 123.353461 
L 194.16865 123.534621 
L 193.747078 123.71578 
L 193.325507 123.896939 
L 192.903935 124.078098 
L 192.482363 124.259257 
L 192.060791 124.440417 
L 191.639219 124.621576 
L 191.217647 124.802735 
L 190.796075 124.983894 
L 190.374503 125.165053 
L 189.952932 125.346213 
L 189.53136 125.527372 
L 189.109788 125.708531 
L 188.688216 125.88969 
L 188.266644 126.070849 
L 187.845072 126.252009 
L 187.4235 126.433168 
L 187.001928 126.614327 
L 186.580357 126.795486 
L 186.158785 126.976645 
L 185.737213 127.157805 
L 185.315641 127.338964 
L 184.894069 127.520123 
L 184.472497 127.701282 
L 184.050925 127.882442 
L 183.629353 128.063601 
L 183.207782 128.24476 
L 182.78621 128.425919 
L 182.364638 128.607078 
L 181.943066 128.788238 
L 181.521494 128.969397 
L 181.099922 129.150556 
L 180.67835 129.331715 
L 180.256778 129.512874 
L 179.835207 129.694034 
L 179.413635 129.875193 
L 178.992063 130.056352 
L 178.570491 130.237511 
L 178.148919 130.41867 
L 177.727347 130.59983 
L 177.305775 130.780989 
L 176.884203 130.962148 
L 176.462632 131.143307 
L 176.04106 131.324466 
L 175.619488 131.505626 
L 175.197916 131.686785 
L 174.776344 131.867944 
L 174.354772 132.049103 
L 173.9332 132.230262 
L 173.511628 132.411422 
L 173.090057 132.592581 
L 172.668485 132.77374 
L 172.246913 132.954899 
L 171.825341 133.136058 
L 171.403769 133.317218 
L 170.982197 133.498377 
L 170.560625 133.679536 
L 170.139053 133.860695 
L 169.717482 134.041854 
L 169.29591 134.223014 
L 168.874338 134.404173 
L 168.452766 134.585332 
L 168.031194 134.766491 
L 167.609622 134.94765 
L 167.18805 135.12881 
L 166.766478 135.309969 
L 166.344907 135.491128 
L 165.923335 135.672287 
L 165.501763 135.853446 
L 165.080191 136.034606 
L 164.658619 136.215765 
L 164.237047 136.396924 
L 163.815475 136.578083 
L 163.393903 136.759242 
L 162.972332 136.940402 
L 162.55076 137.121561 
L 162.129188 137.30272 
L 161.707616 137.483879 
L 161.286044 137.665038 
L 160.864472 137.846198 
L 160.4429 138.027357 
L 160.021328 138.208516 
L 159.599757 138.389675 
L 159.178185 138.570834 
L 158.756613 138.751994 
L 158.335041 138.933153 
L 157.913469 139.114312 
L 157.491897 139.295471 
L 157.070325 139.47663 
L 156.648753 139.65779 
L 156.227181 139.838949 
L 155.80561 140.020108 
L 155.384038 140.201267 
L 154.962466 140.382427 
L 154.540894 140.563586 
L 154.119322 140.744745 
L 153.69775 140.925904 
L 153.276178 141.107063 
L 152.854606 141.288223 
L 152.433035 141.469382 
L 152.011463 141.650541 
L 151.589891 141.8317 
L 151.168319 142.012859 
L 150.746747 142.194019 
L 150.325175 142.375178 
L 149.903603 142.556337 
L 149.482031 142.737496 
L 149.06046 142.918655 
L 148.638888 143.099815 
L 148.217316 143.280974 
L 147.795744 143.462133 
L 147.374172 143.643292 
L 146.9526 143.824451 
L 146.531028 144.005611 
L 146.109456 144.18677 
L 145.687885 144.367929 
L 145.266313 144.549088 
L 144.844741 144.730247 
L 144.423169 144.911407 
L 144.001597 145.092566 
L 143.580025 145.273725 
L 143.158453 145.454884 
L 142.736881 145.636043 
L 142.31531 145.817203 
L 141.893738 145.998362 
L 141.472166 146.179521 
L 141.050594 146.36068 
L 140.629022 146.541839 
L 140.20745 146.722999 
L 139.785878 146.904158 
L 139.364306 147.085317 
L 138.942735 147.266476 
L 138.521163 147.447635 
L 138.099591 147.628795 
L 137.678019 147.809954 
L 137.256447 147.991113 
L 136.834875 148.172272 
L 136.413303 148.353431 
L 135.991731 148.534591 
L 135.57016 148.71575 
L 135.148588 148.896909 
L 134.727016 149.078068 
L 134.305444 149.259227 
L 133.883872 149.440387 
z
" clip-path="url(#pb4204b5f09)" style="fill: #f6c3ad; fill-opacity: 0.7"/>
   </g>
   <g id="line2d_29">
    <path d="M 44.089063 188.027297 
L 212.296241 115.744775 
L 212.296241 115.744775 
" clip-path="url(#pb4204b5f09)" style="fill: none; stroke-dasharray: 4.44,1.92; stroke-dashoffset: 0; stroke: #52514e; stroke-width: 1.2"/>
   </g>
   <g id="line2d_30">
    <path d="M 44.089063 188.027297 
L 53.785216 185.414521 
L 63.059797 182.684414 
L 71.491234 179.979285 
L 79.5011 177.185697 
L 87.089394 174.311412 
L 94.256116 171.366759 
L 101.001266 168.364949 
L 107.324844 165.322375 
L 113.648422 162.03109 
L 119.550428 158.70686 
L 125.030863 155.374949 
L 130.511297 151.778114 
L 135.57016 148.194455 
L 140.629022 144.326942 
L 145.266313 140.502475 
L 149.903603 136.378583 
L 154.119322 132.339078 
L 158.335041 127.990033 
L 162.55076 123.29445 
L 166.344907 118.73663 
L 170.139053 113.826704 
L 173.9332 108.52223 
L 177.305775 103.436047 
L 180.67835 97.95862 
L 184.050925 92.042998 
L 187.4235 85.634408 
L 190.374503 79.572228 
L 193.325507 73.033247 
L 196.27651 65.958912 
L 199.227513 58.280669 
L 202.178516 49.917743 
L 204.707947 42.132388 
L 207.237378 33.702729 
L 209.76681 24.545329 
L 212.296241 14.561697 
L 212.296241 14.561697 
" clip-path="url(#pb4204b5f09)" style="fill: none; stroke: #eb6834; stroke-width: 2.2; stroke-linecap: square"/>
   </g>
   <g id="patch_3">
    <path d="M 44.089063 188.027297 
L 44.089063 10.619297 
" style="fill: none; stroke: #52514e; stroke-width: 0.8; stroke-linejoin: miter; stroke-linecap: square"/>
   </g>
   <g id="patch_4">
    <path d="M 44.089063 188.027297 
L 212.895785 188.027297 
" style="fill: none; stroke: #52514e; stroke-width: 0.8; stroke-linejoin: miter; stroke-linecap: square"/>
   </g>
   <g id="text_17">
    <text style="fill: #52514e; font: 7.5px 'Helvetica Neue', Helvetica, Arial, sans-serif" transform="translate(157.200322 142.549661) rotate(-32)">what the policy assumes</text>
   </g>
   <g id="text_18">
    <text style="fill: #eb6834; font: 7.3px 'Helvetica Neue', Helvetica, Arial, sans-serif" transform="translate(128.492424 49.753694)">what Betaflight sets</text>
    <text style="fill: #eb6834; font: 7.3px 'Helvetica Neue', Helvetica, Arial, sans-serif" transform="translate(128.492424 57.928097)">(rc_rate 55, super 75, expo 0)</text>
   </g>
   <g id="legend_1">
    <g id="patch_5">
     <path d="M 50.659063 22.736156 
L 65.259062 22.736156 
L 65.259062 17.626156 
L 50.659063 17.626156 
z
" style="fill: #a9c8ee; fill-opacity: 0.6"/>
    </g>
    <g id="text_19">
     <text style="font: 7.3px 'Helvetica Neue', Helvetica, Arial, sans-serif; text-anchor: start" x="71.099063" y="22.736156" transform="rotate(-0 71.099063 22.736156)">under-responds</text>
    </g>
    <g id="patch_6">
     <path d="M 50.659063 33.451188 
L 65.259062 33.451188 
L 65.259062 28.341188 
L 50.659063 28.341188 
z
" style="fill: #f6c3ad; fill-opacity: 0.7"/>
    </g>
    <g id="text_20">
     <text style="font: 7.3px 'Helvetica Neue', Helvetica, Arial, sans-serif; text-anchor: start" x="71.099063" y="33.451188" transform="rotate(-0 71.099063 33.451188)">over-responds</text>
    </g>
   </g>
  </g>
  <g id="axes_2">
   <g id="patch_7">
    <path d="M 277.04234 188.027297 
L 445.849063 188.027297 
L 445.849063 10.619297 
L 277.04234 10.619297 
z
" style="fill: #ffffff"/>
   </g>
   <g id="matplotlib.axis_3">
    <g id="xtick_5">
     <g id="line2d_31">
      <path d="M 277.04234 188.027297 
L 277.04234 10.619297 
" clip-path="url(#p745b5b7ae6)" style="fill: none; stroke: #e6e5e1; stroke-width: 0.6; stroke-linecap: square"/>
     </g>
     <g id="line2d_32">
      <g>
       <use xlink:href="#m8fd1b9c107" x="277.04234" y="188.027297" style="fill: #52514e; stroke: #52514e; stroke-width: 0.8"/>
      </g>
     </g>
     <g id="text_21">
      <text style="fill: #52514e; font: 9px 'Helvetica Neue', Helvetica, Arial, sans-serif; text-anchor: middle" x="277.04234" y="201.865891" transform="rotate(-0 277.04234 201.865891)">0</text>
     </g>
    </g>
    <g id="xtick_6">
     <g id="line2d_33">
      <path d="M 321.465162 188.027297 
L 321.465162 10.619297 
" clip-path="url(#p745b5b7ae6)" style="fill: none; stroke: #e6e5e1; stroke-width: 0.6; stroke-linecap: square"/>
     </g>
     <g id="line2d_34">
      <g>
       <use xlink:href="#m8fd1b9c107" x="321.465162" y="188.027297" style="fill: #52514e; stroke: #52514e; stroke-width: 0.8"/>
      </g>
     </g>
     <g id="text_22">
      <text style="fill: #52514e; font: 9px 'Helvetica Neue', Helvetica, Arial, sans-serif; text-anchor: middle" x="321.465162" y="201.865891" transform="rotate(-0 321.465162 201.865891)">50</text>
     </g>
    </g>
    <g id="xtick_7">
     <g id="line2d_35">
      <path d="M 365.887983 188.027297 
L 365.887983 10.619297 
" clip-path="url(#p745b5b7ae6)" style="fill: none; stroke: #e6e5e1; stroke-width: 0.6; stroke-linecap: square"/>
     </g>
     <g id="line2d_36">
      <g>
       <use xlink:href="#m8fd1b9c107" x="365.887983" y="188.027297" style="fill: #52514e; stroke: #52514e; stroke-width: 0.8"/>
      </g>
     </g>
     <g id="text_23">
      <text style="fill: #52514e; font: 9px 'Helvetica Neue', Helvetica, Arial, sans-serif; text-anchor: middle" x="365.887983" y="201.865891" transform="rotate(-0 365.887983 201.865891)">100</text>
     </g>
    </g>
    <g id="xtick_8">
     <g id="line2d_37">
      <path d="M 410.310805 188.027297 
L 410.310805 10.619297 
" clip-path="url(#p745b5b7ae6)" style="fill: none; stroke: #e6e5e1; stroke-width: 0.6; stroke-linecap: square"/>
     </g>
     <g id="line2d_38">
      <g>
       <use xlink:href="#m8fd1b9c107" x="410.310805" y="188.027297" style="fill: #52514e; stroke: #52514e; stroke-width: 0.8"/>
      </g>
     </g>
     <g id="text_24">
      <text style="fill: #52514e; font: 9px 'Helvetica Neue', Helvetica, Arial, sans-serif; text-anchor: middle" x="410.310805" y="201.865891" transform="rotate(-0 410.310805 201.865891)">150</text>
     </g>
    </g>
    <g id="text_25">
     <text style="fill: #0b0b0b; font: 9px 'Helvetica Neue', Helvetica, Arial, sans-serif; text-anchor: middle" x="361.445701" y="214.576203" transform="rotate(-0 361.445701 214.576203)">body rate the policy asked for (deg/s)</text>
    </g>
   </g>
   <g id="matplotlib.axis_4">
    <g id="ytick_11">
     <g id="line2d_39">
      <path d="M 277.04234 180.142497 
L 445.849063 180.142497 
" clip-path="url(#p745b5b7ae6)" style="fill: none; stroke: #e6e5e1; stroke-width: 0.6; stroke-linecap: square"/>
     </g>
     <g id="line2d_40">
      <g>
       <use xlink:href="#m555162c850" x="277.04234" y="180.142497" style="fill: #52514e; stroke: #52514e; stroke-width: 0.8"/>
      </g>
     </g>
     <g id="text_26">
      <text style="fill: #52514e; font: 9px 'Helvetica Neue', Helvetica, Arial, sans-serif; text-anchor: end" x="270.04234" y="183.561794" transform="rotate(-0 270.04234 183.561794)">0.50</text>
     </g>
    </g>
    <g id="ytick_12">
     <g id="line2d_41">
      <path d="M 277.04234 160.430497 
L 445.849063 160.430497 
" clip-path="url(#p745b5b7ae6)" style="fill: none; stroke: #e6e5e1; stroke-width: 0.6; stroke-linecap: square"/>
     </g>
     <g id="line2d_42">
      <g>
       <use xlink:href="#m555162c850" x="277.04234" y="160.430497" style="fill: #52514e; stroke: #52514e; stroke-width: 0.8"/>
      </g>
     </g>
     <g id="text_27">
      <text style="fill: #52514e; font: 9px 'Helvetica Neue', Helvetica, Arial, sans-serif; text-anchor: end" x="270.04234" y="163.849794" transform="rotate(-0 270.04234 163.849794)">0.75</text>
     </g>
    </g>
    <g id="ytick_13">
     <g id="line2d_43">
      <path d="M 277.04234 140.718497 
L 445.849063 140.718497 
" clip-path="url(#p745b5b7ae6)" style="fill: none; stroke: #e6e5e1; stroke-width: 0.6; stroke-linecap: square"/>
     </g>
     <g id="line2d_44">
      <g>
       <use xlink:href="#m555162c850" x="277.04234" y="140.718497" style="fill: #52514e; stroke: #52514e; stroke-width: 0.8"/>
      </g>
     </g>
     <g id="text_28">
      <text style="fill: #52514e; font: 9px 'Helvetica Neue', Helvetica, Arial, sans-serif; text-anchor: end" x="270.04234" y="144.137794" transform="rotate(-0 270.04234 144.137794)">1.00</text>
     </g>
    </g>
    <g id="ytick_14">
     <g id="line2d_45">
      <path d="M 277.04234 121.006497 
L 445.849063 121.006497 
" clip-path="url(#p745b5b7ae6)" style="fill: none; stroke: #e6e5e1; stroke-width: 0.6; stroke-linecap: square"/>
     </g>
     <g id="line2d_46">
      <g>
       <use xlink:href="#m555162c850" x="277.04234" y="121.006497" style="fill: #52514e; stroke: #52514e; stroke-width: 0.8"/>
      </g>
     </g>
     <g id="text_29">
      <text style="fill: #52514e; font: 9px 'Helvetica Neue', Helvetica, Arial, sans-serif; text-anchor: end" x="270.04234" y="124.425794" transform="rotate(-0 270.04234 124.425794)">1.25</text>
     </g>
    </g>
    <g id="ytick_15">
     <g id="line2d_47">
      <path d="M 277.04234 101.294497 
L 445.849063 101.294497 
" clip-path="url(#p745b5b7ae6)" style="fill: none; stroke: #e6e5e1; stroke-width: 0.6; stroke-linecap: square"/>
     </g>
     <g id="line2d_48">
      <g>
       <use xlink:href="#m555162c850" x="277.04234" y="101.294497" style="fill: #52514e; stroke: #52514e; stroke-width: 0.8"/>
      </g>
     </g>
     <g id="text_30">
      <text style="fill: #52514e; font: 9px 'Helvetica Neue', Helvetica, Arial, sans-serif; text-anchor: end" x="270.04234" y="104.713794" transform="rotate(-0 270.04234 104.713794)">1.50</text>
     </g>
    </g>
    <g id="ytick_16">
     <g id="line2d_49">
      <path d="M 277.04234 81.582497 
L 445.849063 81.582497 
" clip-path="url(#p745b5b7ae6)" style="fill: none; stroke: #e6e5e1; stroke-width: 0.6; stroke-linecap: square"/>
     </g>
     <g id="line2d_50">
      <g>
       <use xlink:href="#m555162c850" x="277.04234" y="81.582497" style="fill: #52514e; stroke: #52514e; stroke-width: 0.8"/>
      </g>
     </g>
     <g id="text_31">
      <text style="fill: #52514e; font: 9px 'Helvetica Neue', Helvetica, Arial, sans-serif; text-anchor: end" x="270.04234" y="85.001794" transform="rotate(-0 270.04234 85.001794)">1.75</text>
     </g>
    </g>
    <g id="ytick_17">
     <g id="line2d_51">
      <path d="M 277.04234 61.870497 
L 445.849063 61.870497 
" clip-path="url(#p745b5b7ae6)" style="fill: none; stroke: #e6e5e1; stroke-width: 0.6; stroke-linecap: square"/>
     </g>
     <g id="line2d_52">
      <g>
       <use xlink:href="#m555162c850" x="277.04234" y="61.870497" style="fill: #52514e; stroke: #52514e; stroke-width: 0.8"/>
      </g>
     </g>
     <g id="text_32">
      <text style="fill: #52514e; font: 9px 'Helvetica Neue', Helvetica, Arial, sans-serif; text-anchor: end" x="270.04234" y="65.289794" transform="rotate(-0 270.04234 65.289794)">2.00</text>
     </g>
    </g>
    <g id="ytick_18">
     <g id="line2d_53">
      <path d="M 277.04234 42.158497 
L 445.849063 42.158497 
" clip-path="url(#p745b5b7ae6)" style="fill: none; stroke: #e6e5e1; stroke-width: 0.6; stroke-linecap: square"/>
     </g>
     <g id="line2d_54">
      <g>
       <use xlink:href="#m555162c850" x="277.04234" y="42.158497" style="fill: #52514e; stroke: #52514e; stroke-width: 0.8"/>
      </g>
     </g>
     <g id="text_33">
      <text style="fill: #52514e; font: 9px 'Helvetica Neue', Helvetica, Arial, sans-serif; text-anchor: end" x="270.04234" y="45.577794" transform="rotate(-0 270.04234 45.577794)">2.25</text>
     </g>
    </g>
    <g id="ytick_19">
     <g id="line2d_55">
      <path d="M 277.04234 22.446497 
L 445.849063 22.446497 
" clip-path="url(#p745b5b7ae6)" style="fill: none; stroke: #e6e5e1; stroke-width: 0.6; stroke-linecap: square"/>
     </g>
     <g id="line2d_56">
      <g>
       <use xlink:href="#m555162c850" x="277.04234" y="22.446497" style="fill: #52514e; stroke: #52514e; stroke-width: 0.8"/>
      </g>
     </g>
     <g id="text_34">
      <text style="fill: #52514e; font: 9px 'Helvetica Neue', Helvetica, Arial, sans-serif; text-anchor: end" x="270.04234" y="25.865794" transform="rotate(-0 270.04234 25.865794)">2.50</text>
     </g>
    </g>
    <g id="text_35">
     <text style="fill: #0b0b0b; font: 9px 'Helvetica Neue', Helvetica, Arial, sans-serif; text-anchor: middle" x="244.131559" y="99.323297" transform="rotate(-90 244.131559 99.323297)">delivered / asked</text>
    </g>
   </g>
   <g id="PolyCollection_3">
    <defs>
     <path id="mf4ece61949" d="M 277.450599 -82.929425 
L 277.450599 -51.475916 
L 277.858858 -51.56534 
L 278.267117 -51.655102 
L 278.675376 -51.745203 
L 279.083635 -51.835647 
L 279.491894 -51.926434 
L 279.900153 -52.017568 
L 280.308412 -52.109049 
L 280.716672 -52.20088 
L 281.124931 -52.293063 
L 281.53319 -52.3856 
L 281.941449 -52.478492 
L 282.349708 -52.571743 
L 282.757967 -52.665353 
L 283.166226 -52.759326 
L 283.574485 -52.853663 
L 283.982744 -52.948367 
L 284.391003 -53.043439 
L 284.799262 -53.138881 
L 285.207521 -53.234696 
L 285.61578 -53.330887 
L 286.02404 -53.427454 
L 286.432299 -53.524401 
L 286.840558 -53.62173 
L 287.248817 -53.719443 
L 287.657076 -53.817542 
L 288.065335 -53.916029 
L 288.473594 -54.014907 
L 288.881853 -54.114178 
L 289.290112 -54.213845 
L 289.698371 -54.31391 
L 290.10663 -54.414375 
L 290.514889 -54.515243 
L 290.923149 -54.616515 
L 291.331408 -54.718196 
L 291.739667 -54.820286 
L 292.147926 -54.922789 
L 292.556185 -55.025706 
L 292.964444 -55.129042 
L 293.372703 -55.232797 
L 293.780962 -55.336975 
L 294.189221 -55.441578 
L 294.59748 -55.546609 
L 295.005739 -55.65207 
L 295.413998 -55.757965 
L 295.822257 -55.864295 
L 296.230517 -55.971064 
L 296.638776 -56.078274 
L 297.047035 -56.185928 
L 297.455294 -56.294029 
L 297.863553 -56.402579 
L 298.271812 -56.511581 
L 298.680071 -56.621039 
L 299.08833 -56.730954 
L 299.496589 -56.841331 
L 299.904848 -56.952171 
L 300.313107 -57.063478 
L 300.721366 -57.175254 
L 301.129626 -57.287503 
L 301.537885 -57.400228 
L 301.946144 -57.513431 
L 302.354403 -57.627116 
L 302.762662 -57.741286 
L 303.170921 -57.855944 
L 303.57918 -57.971093 
L 303.987439 -58.086736 
L 304.395698 -58.202877 
L 304.803957 -58.319518 
L 305.212216 -58.436662 
L 305.620475 -58.554315 
L 306.028734 -58.672477 
L 306.436994 -58.791153 
L 306.845253 -58.910346 
L 307.253512 -59.03006 
L 307.661771 -59.150298 
L 308.07003 -59.271063 
L 308.478289 -59.392359 
L 308.886548 -59.514189 
L 309.294807 -59.636557 
L 309.703066 -59.759467 
L 310.111325 -59.882922 
L 310.519584 -60.006925 
L 310.927843 -60.131481 
L 311.336103 -60.256592 
L 311.744362 -60.382264 
L 312.152621 -60.508499 
L 312.56088 -60.635301 
L 312.969139 -60.762675 
L 313.377398 -60.890624 
L 313.785657 -61.019151 
L 314.193916 -61.148262 
L 314.602175 -61.277959 
L 315.010434 -61.408247 
L 315.418693 -61.53913 
L 315.826952 -61.670613 
L 316.235211 -61.802698 
L 316.643471 -61.93539 
L 317.05173 -62.068694 
L 317.459989 -62.202614 
L 317.868248 -62.337154 
L 318.276507 -62.472318 
L 318.684766 -62.608111 
L 319.093025 -62.744537 
L 319.501284 -62.8816 
L 319.909543 -63.019305 
L 320.317802 -63.157657 
L 320.726061 -63.29666 
L 321.13432 -63.436319 
L 321.54258 -63.576638 
L 321.950839 -63.717622 
L 322.359098 -63.859275 
L 322.767357 -64.001603 
L 323.175616 -64.144611 
L 323.583875 -64.288303 
L 323.992134 -64.432684 
L 324.400393 -64.577759 
L 324.808652 -64.723533 
L 325.216911 -64.870012 
L 325.62517 -65.0172 
L 326.033429 -65.165102 
L 326.441688 -65.313724 
L 326.849948 -65.463071 
L 327.258207 -65.613149 
L 327.666466 -65.763962 
L 328.074725 -65.915516 
L 328.482984 -66.067817 
L 328.891243 -66.220869 
L 329.299502 -66.37468 
L 329.707761 -66.529254 
L 330.11602 -66.684597 
L 330.524279 -66.840714 
L 330.932538 -66.997612 
L 331.340797 -67.155297 
L 331.749057 -67.313774 
L 332.157316 -67.47305 
L 332.565575 -67.633129 
L 332.973834 -67.79402 
L 333.382093 -67.955727 
L 333.790352 -68.118257 
L 334.198611 -68.281616 
L 334.60687 -68.445811 
L 335.015129 -68.610848 
L 335.423388 -68.776733 
L 335.831647 -68.943474 
L 336.239906 -69.111076 
L 336.648165 -69.279547 
L 337.056425 -69.448892 
L 337.464684 -69.61912 
L 337.872943 -69.790237 
L 338.281202 -69.962249 
L 338.689461 -70.135165 
L 339.09772 -70.308991 
L 339.505979 -70.483734 
L 339.914238 -70.659401 
L 340.322497 -70.836 
L 340.730756 -71.013539 
L 341.139015 -71.192025 
L 341.547274 -71.371465 
L 341.955534 -71.551867 
L 342.363793 -71.733239 
L 342.772052 -71.915589 
L 343.180311 -72.098925 
L 343.58857 -72.283254 
L 343.996829 -72.468585 
L 344.405088 -72.654926 
L 344.813347 -72.842286 
L 345.221606 -73.030671 
L 345.629865 -73.220092 
L 346.038124 -73.410557 
L 346.446383 -73.602074 
L 346.854642 -73.794652 
L 347.262902 -73.9883 
L 347.671161 -74.183027 
L 348.07942 -74.378841 
L 348.487679 -74.575753 
L 348.895938 -74.77377 
L 349.304197 -74.972904 
L 349.712456 -75.173162 
L 350.120715 -75.374555 
L 350.528974 -75.577092 
L 350.937233 -75.780784 
L 351.345492 -75.985639 
L 351.753751 -76.191668 
L 352.162011 -76.398882 
L 352.57027 -76.607289 
L 352.978529 -76.816902 
L 353.386788 -77.027729 
L 353.795047 -77.239782 
L 354.203306 -77.453072 
L 354.611565 -77.667609 
L 355.019824 -77.883404 
L 355.428083 -78.100469 
L 355.836342 -78.318814 
L 356.244601 -78.538451 
L 356.65286 -78.759392 
L 357.061119 -78.981648 
L 357.469379 -79.205231 
L 357.877638 -79.430152 
L 358.285897 -79.656425 
L 358.694156 -79.88406 
L 359.102415 -80.113071 
L 359.510674 -80.34347 
L 359.918933 -80.57527 
L 360.327192 -80.808483 
L 360.735451 -81.043122 
L 361.14371 -81.279201 
L 361.551969 -81.516733 
L 361.960228 -81.75573 
L 362.368487 -81.996208 
L 362.776747 -82.23818 
L 363.185006 -82.481658 
L 363.593265 -82.726659 
L 363.593265 -82.929425 
L 363.593265 -82.929425 
L 363.185006 -82.929425 
L 362.776747 -82.929425 
L 362.368487 -82.929425 
L 361.960228 -82.929425 
L 361.551969 -82.929425 
L 361.14371 -82.929425 
L 360.735451 -82.929425 
L 360.327192 -82.929425 
L 359.918933 -82.929425 
L 359.510674 -82.929425 
L 359.102415 -82.929425 
L 358.694156 -82.929425 
L 358.285897 -82.929425 
L 357.877638 -82.929425 
L 357.469379 -82.929425 
L 357.061119 -82.929425 
L 356.65286 -82.929425 
L 356.244601 -82.929425 
L 355.836342 -82.929425 
L 355.428083 -82.929425 
L 355.019824 -82.929425 
L 354.611565 -82.929425 
L 354.203306 -82.929425 
L 353.795047 -82.929425 
L 353.386788 -82.929425 
L 352.978529 -82.929425 
L 352.57027 -82.929425 
L 352.162011 -82.929425 
L 351.753751 -82.929425 
L 351.345492 -82.929425 
L 350.937233 -82.929425 
L 350.528974 -82.929425 
L 350.120715 -82.929425 
L 349.712456 -82.929425 
L 349.304197 -82.929425 
L 348.895938 -82.929425 
L 348.487679 -82.929425 
L 348.07942 -82.929425 
L 347.671161 -82.929425 
L 347.262902 -82.929425 
L 346.854642 -82.929425 
L 346.446383 -82.929425 
L 346.038124 -82.929425 
L 345.629865 -82.929425 
L 345.221606 -82.929425 
L 344.813347 -82.929425 
L 344.405088 -82.929425 
L 343.996829 -82.929425 
L 343.58857 -82.929425 
L 343.180311 -82.929425 
L 342.772052 -82.929425 
L 342.363793 -82.929425 
L 341.955534 -82.929425 
L 341.547274 -82.929425 
L 341.139015 -82.929425 
L 340.730756 -82.929425 
L 340.322497 -82.929425 
L 339.914238 -82.929425 
L 339.505979 -82.929425 
L 339.09772 -82.929425 
L 338.689461 -82.929425 
L 338.281202 -82.929425 
L 337.872943 -82.929425 
L 337.464684 -82.929425 
L 337.056425 -82.929425 
L 336.648165 -82.929425 
L 336.239906 -82.929425 
L 335.831647 -82.929425 
L 335.423388 -82.929425 
L 335.015129 -82.929425 
L 334.60687 -82.929425 
L 334.198611 -82.929425 
L 333.790352 -82.929425 
L 333.382093 -82.929425 
L 332.973834 -82.929425 
L 332.565575 -82.929425 
L 332.157316 -82.929425 
L 331.749057 -82.929425 
L 331.340797 -82.929425 
L 330.932538 -82.929425 
L 330.524279 -82.929425 
L 330.11602 -82.929425 
L 329.707761 -82.929425 
L 329.299502 -82.929425 
L 328.891243 -82.929425 
L 328.482984 -82.929425 
L 328.074725 -82.929425 
L 327.666466 -82.929425 
L 327.258207 -82.929425 
L 326.849948 -82.929425 
L 326.441688 -82.929425 
L 326.033429 -82.929425 
L 325.62517 -82.929425 
L 325.216911 -82.929425 
L 324.808652 -82.929425 
L 324.400393 -82.929425 
L 323.992134 -82.929425 
L 323.583875 -82.929425 
L 323.175616 -82.929425 
L 322.767357 -82.929425 
L 322.359098 -82.929425 
L 321.950839 -82.929425 
L 321.54258 -82.929425 
L 321.13432 -82.929425 
L 320.726061 -82.929425 
L 320.317802 -82.929425 
L 319.909543 -82.929425 
L 319.501284 -82.929425 
L 319.093025 -82.929425 
L 318.684766 -82.929425 
L 318.276507 -82.929425 
L 317.868248 -82.929425 
L 317.459989 -82.929425 
L 317.05173 -82.929425 
L 316.643471 -82.929425 
L 316.235211 -82.929425 
L 315.826952 -82.929425 
L 315.418693 -82.929425 
L 315.010434 -82.929425 
L 314.602175 -82.929425 
L 314.193916 -82.929425 
L 313.785657 -82.929425 
L 313.377398 -82.929425 
L 312.969139 -82.929425 
L 312.56088 -82.929425 
L 312.152621 -82.929425 
L 311.744362 -82.929425 
L 311.336103 -82.929425 
L 310.927843 -82.929425 
L 310.519584 -82.929425 
L 310.111325 -82.929425 
L 309.703066 -82.929425 
L 309.294807 -82.929425 
L 308.886548 -82.929425 
L 308.478289 -82.929425 
L 308.07003 -82.929425 
L 307.661771 -82.929425 
L 307.253512 -82.929425 
L 306.845253 -82.929425 
L 306.436994 -82.929425 
L 306.028734 -82.929425 
L 305.620475 -82.929425 
L 305.212216 -82.929425 
L 304.803957 -82.929425 
L 304.395698 -82.929425 
L 303.987439 -82.929425 
L 303.57918 -82.929425 
L 303.170921 -82.929425 
L 302.762662 -82.929425 
L 302.354403 -82.929425 
L 301.946144 -82.929425 
L 301.537885 -82.929425 
L 301.129626 -82.929425 
L 300.721366 -82.929425 
L 300.313107 -82.929425 
L 299.904848 -82.929425 
L 299.496589 -82.929425 
L 299.08833 -82.929425 
L 298.680071 -82.929425 
L 298.271812 -82.929425 
L 297.863553 -82.929425 
L 297.455294 -82.929425 
L 297.047035 -82.929425 
L 296.638776 -82.929425 
L 296.230517 -82.929425 
L 295.822257 -82.929425 
L 295.413998 -82.929425 
L 295.005739 -82.929425 
L 294.59748 -82.929425 
L 294.189221 -82.929425 
L 293.780962 -82.929425 
L 293.372703 -82.929425 
L 292.964444 -82.929425 
L 292.556185 -82.929425 
L 292.147926 -82.929425 
L 291.739667 -82.929425 
L 291.331408 -82.929425 
L 290.923149 -82.929425 
L 290.514889 -82.929425 
L 290.10663 -82.929425 
L 289.698371 -82.929425 
L 289.290112 -82.929425 
L 288.881853 -82.929425 
L 288.473594 -82.929425 
L 288.065335 -82.929425 
L 287.657076 -82.929425 
L 287.248817 -82.929425 
L 286.840558 -82.929425 
L 286.432299 -82.929425 
L 286.02404 -82.929425 
L 285.61578 -82.929425 
L 285.207521 -82.929425 
L 284.799262 -82.929425 
L 284.391003 -82.929425 
L 283.982744 -82.929425 
L 283.574485 -82.929425 
L 283.166226 -82.929425 
L 282.757967 -82.929425 
L 282.349708 -82.929425 
L 281.941449 -82.929425 
L 281.53319 -82.929425 
L 281.124931 -82.929425 
L 280.716672 -82.929425 
L 280.308412 -82.929425 
L 279.900153 -82.929425 
L 279.491894 -82.929425 
L 279.083635 -82.929425 
L 278.675376 -82.929425 
L 278.267117 -82.929425 
L 277.858858 -82.929425 
L 277.450599 -82.929425 
z
"/>
    </defs>
    <g clip-path="url(#p745b5b7ae6)">
     <use xlink:href="#mf4ece61949" x="0" y="223.647922" style="fill: #a9c8ee; fill-opacity: 0.6"/>
    </g>
   </g>
   <g id="PolyCollection_4">
    <defs>
     <path id="m6f15472645" d="M 364.001524 -82.929425 
L 364.001524 -82.973196 
L 364.409783 -83.221283 
L 364.818042 -83.470936 
L 365.226301 -83.722169 
L 365.63456 -83.974996 
L 366.042819 -84.229434 
L 366.451078 -84.485498 
L 366.859337 -84.743204 
L 367.267596 -85.002566 
L 367.675856 -85.263602 
L 368.084115 -85.526328 
L 368.492374 -85.790759 
L 368.900633 -86.056913 
L 369.308892 -86.324807 
L 369.717151 -86.594458 
L 370.12541 -86.865882 
L 370.533669 -87.139098 
L 370.941928 -87.414124 
L 371.350187 -87.690976 
L 371.758446 -87.969675 
L 372.166705 -88.250238 
L 372.574964 -88.532683 
L 372.983224 -88.817031 
L 373.391483 -89.1033 
L 373.799742 -89.39151 
L 374.208001 -89.68168 
L 374.61626 -89.973831 
L 375.024519 -90.267983 
L 375.432778 -90.564157 
L 375.841037 -90.862373 
L 376.249296 -91.162653 
L 376.657555 -91.465019 
L 377.065814 -91.769491 
L 377.474073 -92.076093 
L 377.882333 -92.384846 
L 378.290592 -92.695773 
L 378.698851 -93.008898 
L 379.10711 -93.324244 
L 379.515369 -93.641834 
L 379.923628 -93.961693 
L 380.331887 -94.283844 
L 380.740146 -94.608313 
L 381.148405 -94.935125 
L 381.556664 -95.264305 
L 381.964923 -95.595879 
L 382.373182 -95.929874 
L 382.781441 -96.266315 
L 383.189701 -96.60523 
L 383.59796 -96.946646 
L 384.006219 -97.290591 
L 384.414478 -97.637094 
L 384.822737 -97.986182 
L 385.230996 -98.337885 
L 385.639255 -98.692233 
L 386.047514 -99.049255 
L 386.455773 -99.408982 
L 386.864032 -99.771444 
L 387.272291 -100.136673 
L 387.68055 -100.504701 
L 388.08881 -100.875559 
L 388.497069 -101.249282 
L 388.905328 -101.625902 
L 389.313587 -102.005452 
L 389.721846 -102.387968 
L 390.130105 -102.773484 
L 390.538364 -103.162035 
L 390.946623 -103.553658 
L 391.354882 -103.948389 
L 391.763141 -104.346265 
L 392.1714 -104.747325 
L 392.579659 -105.151606 
L 392.987918 -105.559147 
L 393.396178 -105.969988 
L 393.804437 -106.384169 
L 394.212696 -106.801731 
L 394.620955 -107.222716 
L 395.029214 -107.647166 
L 395.437473 -108.075123 
L 395.845732 -108.506632 
L 396.253991 -108.941737 
L 396.66225 -109.380483 
L 397.070509 -109.822916 
L 397.478768 -110.269083 
L 397.887027 -110.719031 
L 398.295287 -111.172808 
L 398.703546 -111.630463 
L 399.111805 -112.092047 
L 399.520064 -112.55761 
L 399.928323 -113.027204 
L 400.336582 -113.500881 
L 400.744841 -113.978696 
L 401.1531 -114.460701 
L 401.561359 -114.946953 
L 401.969618 -115.437509 
L 402.377877 -115.932425 
L 402.786136 -116.43176 
L 403.194395 -116.935573 
L 403.602655 -117.443925 
L 404.010914 -117.956877 
L 404.419173 -118.474493 
L 404.827432 -118.996836 
L 405.235691 -119.523971 
L 405.64395 -120.055964 
L 406.052209 -120.592883 
L 406.460468 -121.134797 
L 406.868727 -121.681775 
L 407.276986 -122.23389 
L 407.685245 -122.791213 
L 408.093504 -123.353818 
L 408.501764 -123.921782 
L 408.910023 -124.495181 
L 409.318282 -125.074093 
L 409.726541 -125.658599 
L 410.1348 -126.248779 
L 410.543059 -126.844717 
L 410.951318 -127.446498 
L 411.359577 -128.054208 
L 411.767836 -128.667935 
L 412.176095 -129.287768 
L 412.584354 -129.9138 
L 412.992613 -130.546123 
L 413.400872 -131.184834 
L 413.809132 -131.830029 
L 414.217391 -132.481807 
L 414.62565 -133.140271 
L 415.033909 -133.805523 
L 415.442168 -134.477668 
L 415.850427 -135.156815 
L 416.258686 -135.843074 
L 416.666945 -136.536556 
L 417.075204 -137.237377 
L 417.483463 -137.945653 
L 417.891722 -138.661505 
L 418.299981 -139.385054 
L 418.708241 -140.116425 
L 419.1165 -140.855745 
L 419.524759 -141.603146 
L 419.933018 -142.35876 
L 420.341277 -143.122723 
L 420.749536 -143.895175 
L 421.157795 -144.676257 
L 421.566054 -145.466116 
L 421.974313 -146.264899 
L 422.382572 -147.07276 
L 422.790831 -147.889853 
L 423.19909 -148.716339 
L 423.607349 -149.552378 
L 424.015609 -150.39814 
L 424.423868 -151.253793 
L 424.832127 -152.119513 
L 425.240386 -152.995478 
L 425.648645 -153.881871 
L 426.056904 -154.77888 
L 426.465163 -155.686696 
L 426.873422 -156.605516 
L 427.281681 -157.535541 
L 427.68994 -158.476977 
L 428.098199 -159.430036 
L 428.506458 -160.394934 
L 428.914718 -161.371893 
L 429.322977 -162.361142 
L 429.731236 -163.362912 
L 430.139495 -164.377444 
L 430.547754 -165.404982 
L 430.956013 -166.44578 
L 431.364272 -167.500094 
L 431.772531 -168.568189 
L 432.18079 -169.650339 
L 432.589049 -170.746822 
L 432.997308 -171.857925 
L 433.405567 -172.983941 
L 433.813826 -174.125175 
L 434.222086 -175.281935 
L 434.630345 -176.454541 
L 435.038604 -177.643321 
L 435.446863 -178.848612 
L 435.855122 -180.07076 
L 436.263381 -181.310122 
L 436.67164 -182.567063 
L 437.079899 -183.84196 
L 437.488158 -185.135202 
L 437.896417 -186.447186 
L 438.304676 -187.778322 
L 438.712935 -189.129035 
L 439.121195 -190.499758 
L 439.529454 -191.89094 
L 439.937713 -193.303041 
L 439.937713 -82.929425 
L 439.937713 -82.929425 
L 439.529454 -82.929425 
L 439.121195 -82.929425 
L 438.712935 -82.929425 
L 438.304676 -82.929425 
L 437.896417 -82.929425 
L 437.488158 -82.929425 
L 437.079899 -82.929425 
L 436.67164 -82.929425 
L 436.263381 -82.929425 
L 435.855122 -82.929425 
L 435.446863 -82.929425 
L 435.038604 -82.929425 
L 434.630345 -82.929425 
L 434.222086 -82.929425 
L 433.813826 -82.929425 
L 433.405567 -82.929425 
L 432.997308 -82.929425 
L 432.589049 -82.929425 
L 432.18079 -82.929425 
L 431.772531 -82.929425 
L 431.364272 -82.929425 
L 430.956013 -82.929425 
L 430.547754 -82.929425 
L 430.139495 -82.929425 
L 429.731236 -82.929425 
L 429.322977 -82.929425 
L 428.914718 -82.929425 
L 428.506458 -82.929425 
L 428.098199 -82.929425 
L 427.68994 -82.929425 
L 427.281681 -82.929425 
L 426.873422 -82.929425 
L 426.465163 -82.929425 
L 426.056904 -82.929425 
L 425.648645 -82.929425 
L 425.240386 -82.929425 
L 424.832127 -82.929425 
L 424.423868 -82.929425 
L 424.015609 -82.929425 
L 423.607349 -82.929425 
L 423.19909 -82.929425 
L 422.790831 -82.929425 
L 422.382572 -82.929425 
L 421.974313 -82.929425 
L 421.566054 -82.929425 
L 421.157795 -82.929425 
L 420.749536 -82.929425 
L 420.341277 -82.929425 
L 419.933018 -82.929425 
L 419.524759 -82.929425 
L 419.1165 -82.929425 
L 418.708241 -82.929425 
L 418.299981 -82.929425 
L 417.891722 -82.929425 
L 417.483463 -82.929425 
L 417.075204 -82.929425 
L 416.666945 -82.929425 
L 416.258686 -82.929425 
L 415.850427 -82.929425 
L 415.442168 -82.929425 
L 415.033909 -82.929425 
L 414.62565 -82.929425 
L 414.217391 -82.929425 
L 413.809132 -82.929425 
L 413.400872 -82.929425 
L 412.992613 -82.929425 
L 412.584354 -82.929425 
L 412.176095 -82.929425 
L 411.767836 -82.929425 
L 411.359577 -82.929425 
L 410.951318 -82.929425 
L 410.543059 -82.929425 
L 410.1348 -82.929425 
L 409.726541 -82.929425 
L 409.318282 -82.929425 
L 408.910023 -82.929425 
L 408.501764 -82.929425 
L 408.093504 -82.929425 
L 407.685245 -82.929425 
L 407.276986 -82.929425 
L 406.868727 -82.929425 
L 406.460468 -82.929425 
L 406.052209 -82.929425 
L 405.64395 -82.929425 
L 405.235691 -82.929425 
L 404.827432 -82.929425 
L 404.419173 -82.929425 
L 404.010914 -82.929425 
L 403.602655 -82.929425 
L 403.194395 -82.929425 
L 402.786136 -82.929425 
L 402.377877 -82.929425 
L 401.969618 -82.929425 
L 401.561359 -82.929425 
L 401.1531 -82.929425 
L 400.744841 -82.929425 
L 400.336582 -82.929425 
L 399.928323 -82.929425 
L 399.520064 -82.929425 
L 399.111805 -82.929425 
L 398.703546 -82.929425 
L 398.295287 -82.929425 
L 397.887027 -82.929425 
L 397.478768 -82.929425 
L 397.070509 -82.929425 
L 396.66225 -82.929425 
L 396.253991 -82.929425 
L 395.845732 -82.929425 
L 395.437473 -82.929425 
L 395.029214 -82.929425 
L 394.620955 -82.929425 
L 394.212696 -82.929425 
L 393.804437 -82.929425 
L 393.396178 -82.929425 
L 392.987918 -82.929425 
L 392.579659 -82.929425 
L 392.1714 -82.929425 
L 391.763141 -82.929425 
L 391.354882 -82.929425 
L 390.946623 -82.929425 
L 390.538364 -82.929425 
L 390.130105 -82.929425 
L 389.721846 -82.929425 
L 389.313587 -82.929425 
L 388.905328 -82.929425 
L 388.497069 -82.929425 
L 388.08881 -82.929425 
L 387.68055 -82.929425 
L 387.272291 -82.929425 
L 386.864032 -82.929425 
L 386.455773 -82.929425 
L 386.047514 -82.929425 
L 385.639255 -82.929425 
L 385.230996 -82.929425 
L 384.822737 -82.929425 
L 384.414478 -82.929425 
L 384.006219 -82.929425 
L 383.59796 -82.929425 
L 383.189701 -82.929425 
L 382.781441 -82.929425 
L 382.373182 -82.929425 
L 381.964923 -82.929425 
L 381.556664 -82.929425 
L 381.148405 -82.929425 
L 380.740146 -82.929425 
L 380.331887 -82.929425 
L 379.923628 -82.929425 
L 379.515369 -82.929425 
L 379.10711 -82.929425 
L 378.698851 -82.929425 
L 378.290592 -82.929425 
L 377.882333 -82.929425 
L 377.474073 -82.929425 
L 377.065814 -82.929425 
L 376.657555 -82.929425 
L 376.249296 -82.929425 
L 375.841037 -82.929425 
L 375.432778 -82.929425 
L 375.024519 -82.929425 
L 374.61626 -82.929425 
L 374.208001 -82.929425 
L 373.799742 -82.929425 
L 373.391483 -82.929425 
L 372.983224 -82.929425 
L 372.574964 -82.929425 
L 372.166705 -82.929425 
L 371.758446 -82.929425 
L 371.350187 -82.929425 
L 370.941928 -82.929425 
L 370.533669 -82.929425 
L 370.12541 -82.929425 
L 369.717151 -82.929425 
L 369.308892 -82.929425 
L 368.900633 -82.929425 
L 368.492374 -82.929425 
L 368.084115 -82.929425 
L 367.675856 -82.929425 
L 367.267596 -82.929425 
L 366.859337 -82.929425 
L 366.451078 -82.929425 
L 366.042819 -82.929425 
L 365.63456 -82.929425 
L 365.226301 -82.929425 
L 364.818042 -82.929425 
L 364.409783 -82.929425 
L 364.001524 -82.929425 
z
"/>
    </defs>
    <g clip-path="url(#p745b5b7ae6)">
     <use xlink:href="#m6f15472645" x="0" y="223.647922" style="fill: #f6c3ad; fill-opacity: 0.7"/>
    </g>
   </g>
   <g id="line2d_57">
    <path d="M 277.450599 172.172005 
L 287.657076 169.83038 
L 297.455294 167.353893 
L 306.436994 164.856769 
L 315.010434 162.239675 
L 322.767357 159.646318 
L 330.11602 156.963325 
L 337.056425 154.199029 
L 343.58857 151.364668 
L 349.712456 148.47476 
L 355.428083 145.547453 
L 361.14371 142.368721 
L 366.451078 139.162424 
L 371.350187 135.956946 
L 376.249296 132.485269 
L 380.740146 129.039609 
L 385.230996 125.310036 
L 389.313587 121.64247 
L 393.396178 117.677934 
L 397.478768 113.378839 
L 401.1531 109.187221 
L 404.827432 104.651086 
L 408.501764 99.72614 
L 411.767836 94.979987 
L 415.033909 89.842399 
L 418.299981 84.262868 
L 421.157795 78.971665 
L 424.015609 73.249782 
L 426.873422 67.042406 
L 429.731236 60.28501 
L 432.589049 52.9011 
L 435.038604 46.004601 
L 437.488158 38.51272 
L 439.937713 30.344881 
L 439.937713 30.344881 
" clip-path="url(#p745b5b7ae6)" style="fill: none; stroke: #eb6834; stroke-width: 2.2; stroke-linecap: square"/>
   </g>
   <g id="line2d_58">
    <path d="M 277.04234 140.718497 
L 445.849063 140.718497 
" clip-path="url(#p745b5b7ae6)" style="fill: none; stroke-dasharray: 3.33,1.44; stroke-dashoffset: 0; stroke: #52514e; stroke-width: 0.9"/>
   </g>
   <g id="line2d_59">
    <defs>
     <path id="mea0abd0ca0" d="M 0 2.25 
C 0.596707 2.25 1.169055 2.012926 1.59099 1.59099 
C 2.012926 1.169055 2.25 0.596707 2.25 0 
C 2.25 -0.596707 2.012926 -1.169055 1.59099 -1.59099 
C 1.169055 -2.012926 0.596707 -2.25 0 -2.25 
C -0.596707 -2.25 -1.169055 -2.012926 -1.59099 -1.59099 
C -2.012926 -1.169055 -2.25 -0.596707 -2.25 0 
C -2.25 0.596707 -2.012926 1.169055 -1.59099 1.59099 
C -1.169055 2.012926 -0.596707 2.25 0 2.25 
z
" style="stroke: #ffffff"/>
    </defs>
    <g clip-path="url(#p745b5b7ae6)">
     <use xlink:href="#mea0abd0ca0" x="287.223301" y="170.680737" style="fill: #eb6834; stroke: #ffffff"/>
    </g>
   </g>
   <g id="line2d_60">
    <g clip-path="url(#p745b5b7ae6)">
     <use xlink:href="#mea0abd0ca0" x="327.947144" y="158.065057" style="fill: #eb6834; stroke: #ffffff"/>
    </g>
   </g>
   <g id="line2d_61">
    <g clip-path="url(#p745b5b7ae6)">
     <use xlink:href="#mea0abd0ca0" x="399.213869" y="111.544737" style="fill: #eb6834; stroke: #ffffff"/>
    </g>
   </g>
   <g id="line2d_62">
    <g clip-path="url(#p745b5b7ae6)">
     <use xlink:href="#mea0abd0ca0" x="439.937713" y="30.331297" style="fill: #eb6834; stroke: #ffffff"/>
    </g>
   </g>
   <g id="line2d_63">
    <path d="M 364.001524 188.027297 
L 364.001524 10.619297 
" clip-path="url(#p745b5b7ae6)" style="fill: none; stroke-dasharray: 0.8,1.32; stroke-dashoffset: 0; stroke: #8a8985; stroke-width: 0.8"/>
   </g>
   <g id="patch_8">
    <path d="M 277.04234 188.027297 
L 277.04234 10.619297 
" style="fill: none; stroke: #52514e; stroke-width: 0.8; stroke-linejoin: miter; stroke-linecap: square"/>
   </g>
   <g id="patch_9">
    <path d="M 277.04234 188.027297 
L 445.849063 188.027297 
" style="fill: none; stroke: #52514e; stroke-width: 0.8; stroke-linejoin: miter; stroke-linecap: square"/>
   </g>
   <g id="text_36">
    <text style="fill: #52514e; font: 7.3px 'Helvetica Neue', Helvetica, Arial, sans-serif; text-anchor: middle" x="292.554039" y="163.584417" transform="rotate(-0 292.554039 163.584417)">0.62x</text>
   </g>
   <g id="text_37">
    <text style="fill: #52514e; font: 7.3px 'Helvetica Neue', Helvetica, Arial, sans-serif; text-anchor: middle" x="333.277882" y="150.968737" transform="rotate(-0 333.277882 150.968737)">0.78x</text>
   </g>
   <g id="text_38">
    <text style="fill: #52514e; font: 7.3px 'Helvetica Neue', Helvetica, Arial, sans-serif; text-anchor: middle" x="404.544608" y="104.448417" transform="rotate(-0 404.544608 104.448417)">1.37x</text>
   </g>
   <g id="text_39">
    <text style="fill: #52514e; font: 7.3px 'Helvetica Neue', Helvetica, Arial, sans-serif; text-anchor: middle" x="445.268451" y="23.234977" transform="rotate(-0 445.268451 23.234977)">2.40x</text>
   </g>
   <g id="text_40">
    <text style="fill: #8a8985; font: 7.2px 'Helvetica Neue', Helvetica, Arial, sans-serif" transform="translate(364.001524 170.582697)"> loop gain crosses 1</text>
    <text style="fill: #8a8985; font: 7.2px 'Helvetica Neue', Helvetica, Arial, sans-serif" transform="translate(364.001524 178.645122)"> at 98 deg/s</text>
   </g>
   <g id="patch_10">
    <path d="M 428.513737 35.666415 
Q 431.814169 34.463618 434.268484 33.437796 
" style="fill: none; stroke: #eb6834; stroke-width: 0.8; stroke-linecap: round"/>
    <path d="M 430.877458 33.207705 
L 434.268484 33.437796 
L 432.049795 36.012562 
z
" style="fill: #eb6834; stroke: #eb6834; stroke-width: 0.8; stroke-linecap: round"/>
   </g>
   <g id="text_41">
    <g id="patch_11">
     <path d="M 284.149991 51.991353 
L 426.611991 51.991353 
Q 428.511991 51.991353 428.511991 50.091353 
L 428.511991 34.225641 
Q 428.511991 32.325641 426.611991 32.325641 
L 284.149991 32.325641 
Q 282.249991 32.325641 282.249991 34.225641 
L 282.249991 50.091353 
Q 282.249991 51.991353 284.149991 51.991353 
z
" style="fill: #ffffff; opacity: 0.9"/>
    </g>
    <text style="fill: #eb6834; font: 7.6px 'Helvetica Neue', Helvetica, Arial, sans-serif" transform="translate(284.149991 40.000453)">full stick: 2.4x what was asked.</text>
    <text style="fill: #eb6834; font: 7.6px 'Helvetica Neue', Helvetica, Arial, sans-serif" transform="translate(284.149991 48.510791)">Under-respond, over-correct, diverge.</text>
   </g>
  </g>
 </g>
 <defs>
  <clipPath id="pb4204b5f09">
   <rect x="44.089063" y="10.619297" width="168.806723" height="177.408"/>
  </clipPath>
  <clipPath id="p745b5b7ae6">
   <rect x="277.04234" y="10.619297" width="168.806723" height="177.408"/>
  </clipPath>
 </defs>
</svg>
